<svg width="43" height="42" viewBox="0 0 43 42" fill="none" xmlns="http://www.w3.org/2000/svg">
<path d="M31.65 4.56572e-05C33.55 4.56572e-05 35.2833 0.533379 36.85 1.60005C38.45 2.66671 39.7167 4.11671 40.65 5.95005C41.6167 7.75005 42.1 9.78338 42.1 12.05C42.1 13.8834 41.7667 15.6 41.1 17.2C40.4667 18.8 39.65 20.2834 38.65 21.65C37.65 22.9834 36.5833 24.2167 35.45 25.35C34.35 26.45 33.3333 27.45 32.4 28.35C30.9 29.7834 29.4 31.35 27.9 33.05C26.4 34.7167 25.05 36.3167 23.85 37.85C22.6833 39.3834 21.7833 40.65 21.15 41.65C21.0833 41.7834 21.0167 41.7834 20.95 41.65C20.35 40.65 19.45 39.3834 18.25 37.85C17.05 36.3167 15.7 34.7167 14.2 33.05C12.7333 31.35 11.2333 29.7834 9.69999 28.35C8.76665 27.45 7.73332 26.45 6.59999 25.35C5.49999 24.2167 4.44999 22.9834 3.44999 21.65C2.44999 20.2834 1.61665 18.8 0.949988 17.2C0.316655 15.6 -1.20252e-05 13.8834 -1.20252e-05 12.05C-1.20252e-05 9.78338 0.466655 7.75005 1.39999 5.95005C2.36665 4.11671 3.63332 2.66671 5.19999 1.60005C6.79999 0.533379 8.54999 4.56572e-05 10.45 4.56572e-05C12.8167 4.56572e-05 14.95 0.650046 16.85 1.95005C18.75 3.21671 20.0667 5.23338 20.8 8.00005C20.8667 8.23338 20.95 8.35005 21.05 8.35005C21.15 8.35005 21.2333 8.23338 21.3 8.00005C22.0333 5.23338 23.35 3.21671 25.25 1.95005C27.1833 0.650046 29.3167 4.56572e-05 31.65 4.56572e-05Z" fill="#FB7A8E"/>
</svg>
