<svg width="980" height="322" viewBox="0 0 980 322" fill="none" xmlns="http://www.w3.org/2000/svg">
<g clip-path="url(#paint0_diamond_1_45_clip_path)" data-figma-skip-parse="true"><g transform="matrix(0 0.04 -0.04 0 940 162)"><rect x="0" y="0" width="1025" height="1025" fill="url(#paint0_diamond_1_45)" opacity="1" shape-rendering="crispEdges"/><rect x="0" y="0" width="1025" height="1025" transform="scale(1 -1)" fill="url(#paint0_diamond_1_45)" opacity="1" shape-rendering="crispEdges"/><rect x="0" y="0" width="1025" height="1025" transform="scale(-1 1)" fill="url(#paint0_diamond_1_45)" opacity="1" shape-rendering="crispEdges"/><rect x="0" y="0" width="1025" height="1025" transform="scale(-1)" fill="url(#paint0_diamond_1_45)" opacity="1" shape-rendering="crispEdges"/></g></g><circle cx="940" cy="162" r="40" data-figma-gradient-fill="{&#34;type&#34;:&#34;GRADIENT_DIAMOND&#34;,&#34;stops&#34;:[{&#34;color&#34;:{&#34;r&#34;:0.66274511814117432,&#34;g&#34;:0.70980393886566162,&#34;b&#34;:0.99215686321258545,&#34;a&#34;:1.0},&#34;position&#34;:0.0},{&#34;color&#34;:{&#34;r&#34;:0.38039216399192810,&#34;g&#34;:0.58823531866073608,&#34;b&#34;:0.99607843160629272,&#34;a&#34;:1.0},&#34;position&#34;:1.0}],&#34;stopsVar&#34;:[{&#34;color&#34;:{&#34;r&#34;:0.66274511814117432,&#34;g&#34;:0.70980393886566162,&#34;b&#34;:0.99215686321258545,&#34;a&#34;:1.0},&#34;position&#34;:0.0},{&#34;color&#34;:{&#34;r&#34;:0.38039216399192810,&#34;g&#34;:0.58823531866073608,&#34;b&#34;:0.99607843160629272,&#34;a&#34;:1.0},&#34;position&#34;:1.0}],&#34;transform&#34;:{&#34;m00&#34;:4.8985871985824346e-15,&#34;m01&#34;:-80.0,&#34;m02&#34;:980.0,&#34;m10&#34;:80.0,&#34;m11&#34;:4.8985871985824346e-15,&#34;m12&#34;:122.0},&#34;opacity&#34;:1.0,&#34;blendMode&#34;:&#34;NORMAL&#34;,&#34;visible&#34;:true}"/>
<circle cx="880" cy="250" r="20" fill="url(#paint1_linear_1_45)"/>
<circle cx="850" cy="50" r="50" fill="#A9B5FD"/>
<circle cx="850" cy="50" r="50" fill="url(#paint2_linear_1_45)"/>
<path d="M17.2 282V133H53V282H17.2ZM87.1219 282V133H123.522L160.522 204.4L175.122 237.4H176.122C175.189 229.533 174.122 220.667 172.922 210.8C171.855 200.8 171.322 191.333 171.322 182.4V133H205.322V282H168.922L132.122 210.2L117.522 177.6H116.522C117.322 185.867 118.255 194.867 119.322 204.6C120.522 214.2 121.122 223.533 121.122 232.6V282H87.1219ZM286.056 284.8C276.323 284.8 266.523 283 256.656 279.4C246.923 275.8 238.19 270.467 230.456 263.4L250.856 238.8C256.056 243.333 261.856 247 268.256 249.8C274.79 252.6 280.99 254 286.856 254C293.523 254 298.39 252.867 301.456 250.6C304.656 248.2 306.256 245 306.256 241C306.256 238.067 305.39 235.733 303.656 234C301.923 232.133 299.456 230.467 296.256 229C293.19 227.533 289.523 225.933 285.256 224.2L266.256 216.2C261.056 214.067 256.123 211.2 251.456 207.6C246.923 204 243.19 199.533 240.256 194.2C237.456 188.867 236.056 182.6 236.056 175.4C236.056 167 238.323 159.4 242.856 152.6C247.523 145.8 253.923 140.4 262.056 136.4C270.19 132.4 279.523 130.4 290.056 130.4C298.723 130.4 307.323 132.067 315.856 135.4C324.39 138.6 331.923 143.467 338.456 150L320.656 172.4C315.723 168.667 310.856 165.867 306.056 164C301.256 162 295.923 161 290.056 161C284.59 161 280.256 162.067 277.056 164.2C273.99 166.333 272.456 169.333 272.456 173.2C272.456 176 273.39 178.333 275.256 180.2C277.256 182.067 279.923 183.733 283.256 185.2C286.59 186.667 290.456 188.267 294.856 190L313.456 197.4C319.59 199.8 324.856 202.867 329.256 206.6C333.656 210.333 336.99 214.8 339.256 220C341.656 225.067 342.856 231.133 342.856 238.2C342.856 246.467 340.59 254.133 336.056 261.2C331.656 268.267 325.19 274 316.656 278.4C308.256 282.667 298.056 284.8 286.056 284.8ZM367.591 282V133H403.391V282H367.591ZM504.513 284.8C490.779 284.8 478.313 281.933 467.113 276.2C456.046 270.467 447.179 261.933 440.513 250.6C433.979 239.267 430.713 225.2 430.713 208.4C430.713 196 432.646 185 436.513 175.4C440.379 165.667 445.646 157.467 452.313 150.8C459.113 144.133 466.913 139.067 475.713 135.6C484.513 132.133 493.913 130.4 503.913 130.4C514.846 130.4 524.246 132.4 532.113 136.4C539.979 140.267 546.446 144.733 551.513 149.8L532.713 172.6C528.979 169.267 524.979 166.533 520.713 164.4C516.579 162.133 511.379 161 505.113 161C497.779 161 491.246 162.867 485.513 166.6C479.913 170.2 475.446 175.467 472.113 182.4C468.913 189.2 467.313 197.467 467.313 207.2C467.313 217.067 468.779 225.533 471.712 232.6C474.779 239.533 479.313 244.867 485.313 248.6C491.446 252.2 499.113 254 508.313 254C510.979 254 513.579 253.667 516.113 253C518.646 252.333 520.713 251.4 522.313 250.2V226.2H498.713V197H554.113V266.6C548.913 271.533 541.913 275.8 533.113 279.4C524.446 283 514.913 284.8 504.513 284.8ZM584.192 282V133H619.992V189.8H668.992V133H704.592V282H668.992V220.8H619.992V282H584.192ZM767.875 282V162.8H727.675V133H844.075V162.8H803.675V282H767.875Z" fill="white"/>
<defs>
<clipPath id="paint0_diamond_1_45_clip_path"><circle cx="940" cy="162" r="40"/></clipPath><linearGradient id="paint0_diamond_1_45" x1="0" y1="0" x2="500" y2="500" gradientUnits="userSpaceOnUse">
<stop stop-color="#A9B5FD"/>
<stop offset="1" stop-color="#6196FE"/>
</linearGradient>
<linearGradient id="paint1_linear_1_45" x1="860" y1="250" x2="900" y2="250" gradientUnits="userSpaceOnUse">
<stop stop-color="#FAA7B7"/>
<stop offset="1" stop-color="#6196FE"/>
</linearGradient>
<linearGradient id="paint2_linear_1_45" x1="850" y1="0" x2="850" y2="100" gradientUnits="userSpaceOnUse">
<stop stop-color="#FB7A8E" stop-opacity="0"/>
<stop offset="0.8" stop-color="#FB7A8E"/>
</linearGradient>
</defs>
</svg>
